PathFileType	4	(X/Y/Z)	C:\Users\u0145647\OneDrive - KU Leuven\KU Leuven\c3d2osim\CP4\T0\Data\Processed\ViconC3D_CP4_2\CP4_T0_cmj_T1_gapFilled.trc
DataRate	CameraRate	NumFrames	NumMarkers	Units	OrigDataRate	OrigDataStartFrame	OrigNumFrames
100.000000	100.000000	9	47	mm	100.000000	58	459
Frame#	Time	C7			T10			CLAV			STRN			LSHO			RSHO			RBAK			LASI			RASI			LPSI			RPSI			LLAT			RLAT			LF1			LF2			LF3			LTHI			LKNE			LMEK			RF1			RF2			RF3			RTHI			RKNE			RMEK			LT1			LT2			LT3			LTIB			LANK			LMM			RT1			RT2			RT3			RTIB			RANK			RMM			LHEE			LSTL			LLCA			LTOE			LCM5			RHEE			RSTL			RLCA			RTOE			RCM5
		X1	Y1	Z1	X2	Y2	Z2	X3	Y3	Z3	X4	Y4	Z4	X5	Y5	Z5	X6	Y6	Z6	X7	Y7	Z7	X8	Y8	Z8	X9	Y9	Z9	X10	Y10	Z10	X11	Y11	Z11	X12	Y12	Z12	X13	Y13	Z13	X14	Y14	Z14	X15	Y15	Z15	X16	Y16	Z16	X17	Y17	Z17	X18	Y18	Z18	X19	Y19	Z19	X20	Y20	Z20	X21	Y21	Z21	X22	Y22	Z22	X23	Y23	Z23	X24	Y24	Z24	X25	Y25	Z25	X26	Y26	Z26	X27	Y27	Z27	X28	Y28	Z28	X29	Y29	Z29	X30	Y30	Z30	X31	Y31	Z31	X32	Y32	Z32	X33	Y33	Z33	X34	Y34	Z34	X35	Y35	Z35	X36	Y36	Z36	X37	Y37	Z37	X38	Y38	Z38	X39	Y39	Z39	X40	Y40	Z40	X41	Y41	Z41	X42	Y42	Z42	X43	Y43	Z43	X44	Y44	Z44	X45	Y45	Z45	X46	Y46	Z46	X47	Y47	Z47

58	0.57	-166.78	1440.4	-311.06	-135.84	1185	-346.33	-168.64	1361	-192.53	-162.68	1208.5	-169.38	43.243	1408.5	-218.6	-361.23	1384	-270.85	-283.92	1354.2	-355.1	-77.938	924.37	-162.3	-272.74	922.86	-219.06	-94.667	963.14	-343.54	-164.44	967.82	-365.28	-13.416	993.56	-207.42	-300.67	996.61	-285.85	45.815	682.89	-189.03	39.648	725.76	-205.17	49.823	676.82	-222.77	104.78	611.96	-207.59	58.482	474.65	-187.36	NaN	NaN	NaN	-333.1	651.59	-303.3	-338.69	685.3	-283.65	-313.42	682.54	-340.67	-375.55	591.99	-310.39	-328.74	464.83	-263.09	NaN	NaN	NaN	103.8	316.99	-272.38	91.261	346.12	-219.81	91.993	360.22	-270.41	147.51	247.29	-229.4	120.72	84.608	-327.59	39.218	74.763	-290.68	-350.18	320.29	-309.58	-342.69	360.05	-277.92	-336.72	367.93	-328.64	-400.14	253.93	-318.2	-350.12	72.808	-336.71	-276.15	77.865	-289.61	67.307	59.782	-364.95	48.431	45.639	-296.53	123.06	56.166	-325.39	128.97	48.244	-196.53	169.14	42.34	-223.52	-292.79	62.655	-365.83	-283.09	41.981	-294.17	-353.7	47.354	-330.37	-383	44.743	-207.79	-420.19	31.33	-254.54
59	0.58	-166.92	1440.5	-310.91	-135.84	1184.9	-346.22	-168.75	1361	-192.36	-162.81	1208.5	-169.29	43.124	1408.6	-218.4	-361.32	1384	-270.74	-284.03	1354.2	-355	-78.054	924.36	-162.13	-272.83	922.88	-219.09	-94.604	963.14	-343.41	-164.34	967.84	-365.21	-13.485	993.57	-207.21	-300.7	996.57	-285.93	45.8	682.88	-188.82	39.722	725.75	-205.1	49.761	676.83	-222.63	104.99	612.02	-207.21	58.419	474.63	-187.29	NaN	NaN	NaN	-333.06	651.61	-303.45	-338.7	685.32	-283.8	-313.31	682.56	-340.76	-375.48	592	-310.6	-328.79	464.84	-263.13	NaN	NaN	NaN	103.74	316.97	-272.34	91.171	346.11	-219.8	91.926	360.26	-270.35	147.5	247.36	-229.36	121.1	85.066	-327.8	39.437	74.659	-290.63	-350.18	320.31	-309.62	-342.7	360.06	-277.96	-336.71	367.95	-328.69	-400.11	253.91	-318.29	-350.11	72.795	-336.72	-276.17	77.88	-289.58	67.295	59.801	-364.97	48.474	45.614	-296.53	123.03	56.128	-325.4	129.02	48.225	-196.5	169.16	42.343	-223.55	-292.8	62.64	-365.81	-283.11	41.99	-294.15	-353.68	47.325	-330.38	-383.04	44.806	-207.78	-420.21	31.345	-254.55
60	0.59	-167.01	1440.5	-310.81	-135.8	1185	-346.14	-168.82	1361	-192.25	-162.92	1208.5	-169.17	43.013	1408.6	-218.18	-361.42	1384	-270.61	-284.12	1354.2	-354.87	-78.18	924.33	-161.98	-272.92	922.86	-219.12	-94.563	963.14	-343.26	-164.27	967.81	-365.15	-13.538	993.53	-207.01	-300.73	996.51	-286.02	45.729	682.85	-188.65	39.741	725.74	-205.04	49.727	676.82	-222.45	104.81	612.18	-207.26	58.338	474.62	-187.2	NaN	NaN	NaN	-333.07	651.63	-303.55	-338.7	685.33	-283.92	-313.31	682.56	-340.88	-375.44	592	-310.75	-328.83	464.85	-263.18	NaN	NaN	NaN	103.69	316.97	-272.33	91.082	346.09	-219.75	91.839	360.23	-270.34	147.51	247.42	-229.38	121.09	85.069	-327.81	39.209	74.745	-290.66	-350.22	320.31	-309.63	-342.75	360.08	-277.96	-336.7	367.95	-328.72	-400.15	253.89	-318.31	-350.08	72.8	-336.74	-276.16	77.886	-289.61	67.251	59.846	-364.96	48.431	45.622	-296.52	123.2	56.208	-325.58	129	48.22	-196.51	169.18	42.331	-223.54	-292.8	62.654	-365.81	-283.09	42.013	-294.18	-353.62	47.303	-330.39	-383.01	44.744	-207.8	-420.23	31.353	-254.55
61	0.6	-167.13	1440.5	-310.58	-135.8	1185	-346.01	-168.94	1361	-192.07	-163.02	1208.4	-169.17	42.904	1408.7	-217.99	-361.52	1383.9	-270.44	-284.25	1354.2	-354.74	-78.289	924.27	-161.85	-272.99	922.85	-219.1	-94.496	963.14	-343.12	-164.17	967.82	-365.11	-13.617	993.51	-206.81	-300.75	996.44	-286.1	45.681	682.84	-188.53	39.75	725.71	-204.89	49.671	676.79	-222.32	104.83	612.09	-207.08	58.252	474.58	-187.04	NaN	NaN	NaN	-333.1	651.63	-303.68	-338.71	685.34	-284.07	-313.27	682.53	-340.98	-375.47	591.99	-310.85	-328.88	464.84	-263.21	NaN	NaN	NaN	103.6	316.99	-272.33	91.041	346.06	-219.74	91.747	360.2	-270.31	147.47	247.47	-229.45	121.07	85.073	-327.8	39.212	74.755	-290.67	-350.25	320.29	-309.63	-342.77	360.08	-277.96	-336.76	367.93	-328.7	-400.18	253.91	-318.32	-350.13	72.792	-336.74	-276.2	77.849	-289.56	67.257	59.815	-364.95	48.463	45.598	-296.48	123.13	56.218	-325.49	129.03	48.206	-196.51	169.21	42.3	-223.55	-292.8	62.664	-365.8	-283.12	41.985	-294.15	-353.62	47.31	-330.4	-383.03	44.759	-207.82	-420.22	31.337	-254.56
62	0.61	-167.23	1440.5	-310.45	-135.78	1184.9	-345.89	-169.04	1360.9	-191.93	-163.11	1208.4	-169.09	42.802	1408.7	-217.79	-361.59	1383.9	-270.31	-284.34	1354.2	-354.6	-78.409	924.21	-161.76	-273.06	922.81	-219.13	-94.431	963.17	-343	-164.12	967.81	-365.03	-13.678	993.44	-206.64	-300.77	996.34	-286.19	45.644	682.77	-188.4	39.5	725.61	-204.39	49.614	676.79	-222.17	104.84	612.16	-206.84	58.183	474.57	-186.97	NaN	NaN	NaN	-333.12	651.62	-303.75	-338.76	685.33	-284.13	-313.25	682.51	-341.02	-375.48	591.96	-310.94	-328.92	464.84	-263.21	NaN	NaN	NaN	103.54	316.99	-272.28	90.965	346.06	-219.63	91.455	360.1	-270.1	147.46	247.55	-229.49	121.07	85.074	-327.8	39.44	74.642	-290.58	-350.28	320.29	-309.66	-342.79	360.06	-277.96	-336.76	367.91	-328.7	-400.19	253.92	-318.28	-350.12	72.772	-336.75	-276.19	77.879	-289.59	67.261	59.799	-364.95	48.481	45.599	-296.48	123.16	56.26	-325.58	129.04	48.221	-196.5	169.23	42.297	-223.56	-292.81	62.649	-365.8	-283.13	41.97	-294.11	-353.63	47.292	-330.41	-383.09	44.818	-207.8	-420.23	31.325	-254.58
63	0.62	-167.33	1440.5	-310.3	-135.8	1184.9	-345.8	-169.16	1360.9	-191.77	-163.16	1208.3	-169.05	42.69	1408.6	-217.57	-361.67	1383.8	-270.13	-284.42	1354.2	-354.47	-78.54	924.13	-161.64	-273.12	922.81	-219.16	-94.403	963.16	-342.87	-164.08	967.8	-364.99	-13.735	993.39	-206.5	-300.83	996.25	-286.27	45.572	682.68	-188.18	39.666	725.61	-204.51	49.532	676.78	-221.99	104.99	612.33	-206.56	58.07	474.5	-186.81	NaN	NaN	NaN	-333.15	651.58	-303.8	-338.85	685.31	-284.19	-313.25	682.48	-341.03	-375.48	591.91	-311.05	-328.97	464.82	-263.23	NaN	NaN	NaN	103.46	316.97	-272.22	90.842	346.05	-219.59	91.344	360.11	-270.08	147.45	247.44	-229.48	120.65	84.666	-327.58	39.417	74.606	-290.6	-350.29	320.26	-309.66	-342.82	360.04	-277.98	-336.8	367.9	-328.69	-400.2	253.87	-318.33	-350.12	72.778	-336.75	-276.21	77.85	-289.56	67.218	59.848	-364.92	48.527	45.561	-296.48	123.16	56.247	-325.6	129.03	48.219	-196.48	169.23	42.276	-223.53	-292.78	62.6	-365.69	-283.14	41.976	-294.15	-353.66	47.322	-330.41	-383.07	44.748	-207.84	-420.26	31.316	-254.6
64	0.63	-167.42	1440.5	-310.12	-135.8	1184.9	-345.71	-169.22	1360.9	-191.63	-163.26	1208.2	-168.97	42.602	1408.6	-217.36	-361.76	1383.7	-269.99	-284.48	1354.2	-354.36	-78.646	924.06	-161.56	-273.18	922.8	-219.14	-94.382	963.12	-342.84	-164.04	967.8	-365	-13.798	993.32	-206.4	-301.2	995.67	-286.88	45.558	682.61	-188.01	39.653	725.49	-204.28	49.448	676.66	-221.73	105.05	612.49	-206.49	57.992	474.47	-186.7	NaN	NaN	NaN	-333.18	651.55	-303.82	-338.92	685.3	-284.19	-313.26	682.47	-341.02	-375.47	591.93	-311.1	-328.99	464.82	-263.24	NaN	NaN	NaN	103.41	316.95	-272.18	90.726	346.01	-219.51	91.296	360.11	-270.07	147.46	247.44	-229.4	121.05	85.075	-327.77	39.387	74.643	-290.57	-350.3	320.27	-309.67	-342.85	360.04	-277.97	-336.76	367.91	-328.72	-400.21	253.89	-318.37	-350.14	72.748	-336.76	-276.19	77.864	-289.58	67.182	59.844	-364.92	48.478	45.595	-296.46	123.14	56.255	-325.55	129.04	48.21	-196.48	169.24	42.253	-223.55	-292.77	62.6	-365.69	-283.14	41.98	-294.16	-353.55	47.222	-330.45	-383.08	44.752	-207.85	-420.28	31.31	-254.59
65	0.64	-167.48	1440.4	-309.94	-135.84	1184.9	-345.63	-169.31	1360.8	-191.48	-163.28	1208.2	-169	42.507	1408.5	-217.19	-361.82	1383.6	-269.87	-284.57	1354.1	-354.24	-78.768	924.01	-161.49	-273.25	922.77	-219.15	-94.386	963.08	-342.76	-164.01	967.77	-364.98	-13.857	993.27	-206.32	-301.26	995.65	-286.93	45.528	682.46	-187.82	39.372	725.48	-203.91	49.366	676.69	-221.58	104.93	612.24	-206	57.888	474.46	-186.61	NaN	NaN	NaN	-333.21	651.57	-303.8	-338.92	685.32	-284.23	-313.27	682.46	-341.04	-375.48	591.92	-311.14	-329.05	464.79	-263.22	NaN	NaN	NaN	103.33	316.94	-272.14	90.623	345.99	-219.47	91.25	360.17	-270.08	147.34	247.45	-229.34	120.61	84.684	-327.57	39.115	74.702	-290.67	-350.37	320.29	-309.65	-342.89	360.03	-277.96	-336.8	367.94	-328.69	-400.23	253.87	-318.38	-350.13	72.766	-336.78	-276.2	77.872	-289.58	67.165	59.853	-364.93	48.466	45.597	-296.45	123.09	56.258	-325.5	129.04	48.2	-196.47	169.24	42.256	-223.52	-292.78	62.612	-365.69	-283.13	41.989	-294.15	-353.64	47.279	-330.47	-383.11	44.732	-207.86	-420.29	31.302	-254.63
66	0.65	-167.57	1440.4	-309.75	-135.87	1184.9	-345.55	-169.43	1360.8	-191.34	-163.37	1208.1	-168.88	42.428	1408.4	-217.01	-361.89	1383.5	-269.75	-284.64	1354.1	-354.13	-78.877	923.97	-161.43	-273.3	922.75	-219.16	-94.394	963.07	-342.73	-164.01	967.76	-364.97	-13.917	993.21	-206.26	-301.32	995.62	-286.98	45.454	682.42	-187.67	39.372	725.44	-203.9	49.317	676.73	-221.53	104.85	612.18	-205.86	57.816	474.44	-186.51	NaN	NaN	NaN	-333.22	651.54	-303.81	-338.91	685.31	-284.21	-313.29	682.45	-341.05	-375.55	591.93	-311.09	-329.08	464.81	-263.18	NaN	NaN	NaN	103.28	316.96	-272.06	90.559	345.97	-219.4	91.2	360.19	-270.11	147.29	247.45	-229.39	120.6	84.673	-327.57	39.094	74.695	-290.66	-350.35	320.29	-309.62	-342.91	360.01	-277.94	-336.41	367.79	-328.72	-400.27	253.87	-318.35	-350.08	72.749	-336.77	-276.21	77.842	-289.55	67.109	59.832	-364.94	48.486	45.518	-296.44	123.12	56.291	-325.56	129.06	48.213	-196.47	169.26	42.249	-223.54	-292.8	62.621	-365.7	-283.16	41.962	-294.12	-353.69	47.295	-330.44	-383.11	44.733	-207.86	-420.29	31.306	-254.61
